<?xml version="1.0" encoding="UTF-8" standalone="no"?>
<!DOCTYPE svg PUBLIC "-//W3C//DTD SVG 1.1//EN"
 "http://www.w3.org/Graphics/SVG/1.1/DTD/svg11.dtd">
<!-- Generated by graphviz version 2.30.1 (20201013.1554)
 -->
<!-- Title: snakemake_dag Pages: 1 -->
<svg width="426pt" height="548pt"
 viewBox="0.00 0.00 426.00 548.00" xmlns="http://www.w3.org/2000/svg" xmlns:xlink="http://www.w3.org/1999/xlink">
<g id="graph0" class="graph" transform="scale(1 1) rotate(0) translate(4 544)">
<title>snakemake_dag</title>
<polygon fill="white" stroke="white" points="-4,5 -4,-544 423,-544 423,5 -4,5"/>
<!-- 0 -->
<g id="node1" class="node"><title>0</title>
<path fill="none" stroke="#d8b456" stroke-width="2" d="M224,-36C224,-36 194,-36 194,-36 188,-36 182,-30 182,-24 182,-24 182,-12 182,-12 182,-6 188,-0 194,-0 194,-0 224,-0 224,-0 230,-0 236,-6 236,-12 236,-12 236,-24 236,-24 236,-30 230,-36 224,-36"/>
<text text-anchor="middle" x="209" y="-15.5" font-family="sans" font-size="10.00">all</text>
</g>
<!-- 1 -->
<g id="node2" class="node"><title>1</title>
<path fill="none" stroke="#d89556" stroke-width="2" d="M188,-108C188,-108 12,-108 12,-108 6,-108 0,-102 0,-96 0,-96 0,-84 0,-84 0,-78 6,-72 12,-72 12,-72 188,-72 188,-72 194,-72 200,-78 200,-84 200,-84 200,-96 200,-96 200,-102 194,-108 188,-108"/>
<text text-anchor="middle" x="100" y="-93" font-family="sans" font-size="10.00">overlap_activity_only_features_crispr</text>
<text text-anchor="middle" x="100" y="-82" font-family="sans" font-size="10.00">nafill: withNA</text>
</g>
<!-- 1&#45;&gt;0 -->
<g id="edge1" class="edge"><title>1&#45;&gt;0</title>
<path fill="none" stroke="grey" stroke-width="2" d="M126.664,-71.8761C140.784,-62.8083 158.311,-51.5523 173.561,-41.7592"/>
<polygon fill="grey" stroke="grey" points="175.71,-44.5385 182.233,-36.1898 171.927,-38.6485 175.71,-44.5385"/>
</g>
<!-- 2 -->
<g id="node3" class="node"><title>2</title>
<path fill="none" stroke="#56d882" stroke-width="2" d="M250.25,-180C250.25,-180 167.75,-180 167.75,-180 161.75,-180 155.75,-174 155.75,-168 155.75,-168 155.75,-156 155.75,-156 155.75,-150 161.75,-144 167.75,-144 167.75,-144 250.25,-144 250.25,-144 256.25,-144 262.25,-150 262.25,-156 262.25,-156 262.25,-168 262.25,-168 262.25,-174 256.25,-180 250.25,-180"/>
<text text-anchor="middle" x="209" y="-159.5" font-family="sans" font-size="10.00">gen_final_features</text>
</g>
<!-- 2&#45;&gt;1 -->
<g id="edge3" class="edge"><title>2&#45;&gt;1</title>
<path fill="none" stroke="grey" stroke-width="2" d="M182.336,-143.876C168.216,-134.808 150.689,-123.552 135.439,-113.759"/>
<polygon fill="grey" stroke="grey" points="137.073,-110.648 126.767,-108.19 133.29,-116.538 137.073,-110.648"/>
</g>
<!-- 8 -->
<g id="node9" class="node"><title>8</title>
<path fill="none" stroke="#d89556" stroke-width="2" d="M406,-108C406,-108 230,-108 230,-108 224,-108 218,-102 218,-96 218,-96 218,-84 218,-84 218,-78 224,-72 230,-72 230,-72 406,-72 406,-72 412,-72 418,-78 418,-84 418,-84 418,-96 418,-96 418,-102 412,-108 406,-108"/>
<text text-anchor="middle" x="318" y="-93" font-family="sans" font-size="10.00">overlap_activity_only_features_crispr</text>
<text text-anchor="middle" x="318" y="-82" font-family="sans" font-size="10.00">nafill: NAfilled</text>
</g>
<!-- 2&#45;&gt;8 -->
<g id="edge11" class="edge"><title>2&#45;&gt;8</title>
<path fill="none" stroke="grey" stroke-width="2" d="M235.664,-143.876C249.784,-134.808 267.311,-123.552 282.561,-113.759"/>
<polygon fill="grey" stroke="grey" points="284.71,-116.538 291.233,-108.19 280.927,-110.648 284.71,-116.538"/>
</g>
<!-- 3 -->
<g id="node4" class="node"><title>3</title>
<path fill="none" stroke="#5692d8" stroke-width="2" d="M259.25,-252C259.25,-252 158.75,-252 158.75,-252 152.75,-252 146.75,-246 146.75,-240 146.75,-240 146.75,-228 146.75,-228 146.75,-222 152.75,-216 158.75,-216 158.75,-216 259.25,-216 259.25,-216 265.25,-216 271.25,-222 271.25,-228 271.25,-228 271.25,-240 271.25,-240 271.25,-246 265.25,-252 259.25,-252"/>
<text text-anchor="middle" x="209" y="-231.5" font-family="sans" font-size="10.00">activity_only_features</text>
</g>
<!-- 3&#45;&gt;2 -->
<g id="edge4" class="edge"><title>3&#45;&gt;2</title>
<path fill="none" stroke="grey" stroke-width="2" d="M209,-215.697C209,-207.983 209,-198.712 209,-190.112"/>
<polygon fill="grey" stroke="grey" points="212.5,-190.104 209,-180.104 205.5,-190.104 212.5,-190.104"/>
</g>
<!-- 4 -->
<g id="node5" class="node"><title>4</title>
<path fill="none" stroke="#56d863" stroke-width="2" d="M221.25,-396C221.25,-396 116.75,-396 116.75,-396 110.75,-396 104.75,-390 104.75,-384 104.75,-384 104.75,-372 104.75,-372 104.75,-366 110.75,-360 116.75,-360 116.75,-360 221.25,-360 221.25,-360 227.25,-360 233.25,-366 233.25,-372 233.25,-372 233.25,-384 233.25,-384 233.25,-390 227.25,-396 221.25,-396"/>
<text text-anchor="middle" x="169" y="-375.5" font-family="sans" font-size="10.00">abc_create_predictions</text>
</g>
<!-- 4&#45;&gt;3 -->
<g id="edge5" class="edge"><title>4&#45;&gt;3</title>
<path fill="none" stroke="grey" stroke-width="2" d="M171.806,-359.723C174.948,-341.631 180.588,-312.499 188,-288 190.637,-279.285 194.091,-269.988 197.434,-261.654"/>
<polygon fill="grey" stroke="grey" points="200.671,-262.985 201.251,-252.406 194.201,-260.314 200.671,-262.985"/>
</g>
<!-- 7 -->
<g id="node8" class="node"><title>7</title>
<path fill="none" stroke="#9fd856" stroke-width="2" d="M291,-324C291,-324 209,-324 209,-324 203,-324 197,-318 197,-312 197,-312 197,-300 197,-300 197,-294 203,-288 209,-288 209,-288 291,-288 291,-288 297,-288 303,-294 303,-300 303,-300 303,-312 303,-312 303,-318 297,-324 291,-324"/>
<text text-anchor="middle" x="250" y="-303.5" font-family="sans" font-size="10.00">gen_new_features</text>
</g>
<!-- 4&#45;&gt;7 -->
<g id="edge9" class="edge"><title>4&#45;&gt;7</title>
<path fill="none" stroke="grey" stroke-width="2" d="M189.022,-359.697C199.126,-350.965 211.536,-340.24 222.518,-330.75"/>
<polygon fill="grey" stroke="grey" points="224.93,-333.291 230.208,-324.104 220.353,-327.995 224.93,-333.291"/>
</g>
<!-- 5 -->
<g id="node6" class="node"><title>5</title>
<path fill="none" stroke="#56d0d8" stroke-width="2" stroke-dasharray="5,2" d="M276.25,-468C276.25,-468 153.75,-468 153.75,-468 147.75,-468 141.75,-462 141.75,-456 141.75,-456 141.75,-444 141.75,-444 141.75,-438 147.75,-432 153.75,-432 153.75,-432 276.25,-432 276.25,-432 282.25,-432 288.25,-438 288.25,-444 288.25,-444 288.25,-456 288.25,-456 288.25,-462 282.25,-468 276.25,-468"/>
<text text-anchor="middle" x="215" y="-453" font-family="sans" font-size="10.00">abc_create_neighborhoods</text>
<text text-anchor="middle" x="215" y="-442" font-family="sans" font-size="10.00">biosample: K562</text>
</g>
<!-- 5&#45;&gt;4 -->
<g id="edge7" class="edge"><title>5&#45;&gt;4</title>
<path fill="none" stroke="grey" stroke-width="2" d="M203.629,-431.697C198.282,-423.559 191.796,-413.689 185.889,-404.701"/>
<polygon fill="grey" stroke="grey" points="188.657,-402.539 180.24,-396.104 182.807,-406.384 188.657,-402.539"/>
</g>
<!-- 5&#45;&gt;7 -->
<g id="edge10" class="edge"><title>5&#45;&gt;7</title>
<path fill="none" stroke="grey" stroke-width="2" d="M226.031,-431.552C231.802,-421.538 238.399,-408.503 242,-396 247.823,-375.782 249.721,-352.007 250.219,-334.119"/>
<polygon fill="grey" stroke="grey" points="253.719,-334.134 250.37,-324.082 246.72,-334.028 253.719,-334.134"/>
</g>
<!-- 6 -->
<g id="node7" class="node"><title>6</title>
<path fill="none" stroke="#68d856" stroke-width="2" stroke-dasharray="5,2" d="M299,-540C299,-540 131,-540 131,-540 125,-540 119,-534 119,-528 119,-528 119,-516 119,-516 119,-510 125,-504 131,-504 131,-504 299,-504 299,-504 305,-504 311,-510 311,-516 311,-516 311,-528 311,-528 311,-534 305,-540 299,-540"/>
<text text-anchor="middle" x="215" y="-519.5" font-family="sans" font-size="10.00">abc_generate_chrom_sizes_bed_file</text>
</g>
<!-- 6&#45;&gt;5 -->
<g id="edge8" class="edge"><title>6&#45;&gt;5</title>
<path fill="none" stroke="grey" stroke-width="2" d="M215,-503.697C215,-495.983 215,-486.712 215,-478.112"/>
<polygon fill="grey" stroke="grey" points="218.5,-478.104 215,-468.104 211.5,-478.104 218.5,-478.104"/>
</g>
<!-- 7&#45;&gt;3 -->
<g id="edge6" class="edge"><title>7&#45;&gt;3</title>
<path fill="none" stroke="grey" stroke-width="2" d="M239.865,-287.697C235.148,-279.644 229.438,-269.894 224.218,-260.982"/>
<polygon fill="grey" stroke="grey" points="227.092,-258.964 219.018,-252.104 221.052,-262.502 227.092,-258.964"/>
</g>
<!-- 8&#45;&gt;0 -->
<g id="edge2" class="edge"><title>8&#45;&gt;0</title>
<path fill="none" stroke="grey" stroke-width="2" d="M291.336,-71.8761C277.216,-62.8083 259.689,-51.5523 244.439,-41.7592"/>
<polygon fill="grey" stroke="grey" points="246.073,-38.6485 235.767,-36.1898 242.29,-44.5385 246.073,-38.6485"/>
</g>
</g>
</svg>
