<?xml version="1.0" encoding="UTF-8" standalone="no"?>
<!DOCTYPE svg PUBLIC "-//W3C//DTD SVG 1.1//EN"
 "http://www.w3.org/Graphics/SVG/1.1/DTD/svg11.dtd">
<!-- Generated by graphviz version 2.30.1 (20201013.1554)
 -->
<!-- Title: snakemake_dag Pages: 1 -->
<svg width="426pt" height="692pt"
 viewBox="0.00 0.00 426.00 692.00" xmlns="http://www.w3.org/2000/svg" xmlns:xlink="http://www.w3.org/1999/xlink">
<g id="graph0" class="graph" transform="scale(1 1) rotate(0) translate(4 688)">
<title>snakemake_dag</title>
<polygon fill="white" stroke="white" points="-4,5 -4,-688 423,-688 423,5 -4,5"/>
<!-- 0 -->
<g id="node1" class="node"><title>0</title>
<path fill="none" stroke="#88d856" stroke-width="2" d="M224,-36C224,-36 194,-36 194,-36 188,-36 182,-30 182,-24 182,-24 182,-12 182,-12 182,-6 188,-0 194,-0 194,-0 224,-0 224,-0 230,-0 236,-6 236,-12 236,-12 236,-24 236,-24 236,-30 230,-36 224,-36"/>
<text text-anchor="middle" x="209" y="-15.5" font-family="sans" font-size="10.00">all</text>
</g>
<!-- 1 -->
<g id="node2" class="node"><title>1</title>
<path fill="none" stroke="#56b1d8" stroke-width="2" d="M188,-108C188,-108 12,-108 12,-108 6,-108 0,-102 0,-96 0,-96 0,-84 0,-84 0,-78 6,-72 12,-72 12,-72 188,-72 188,-72 194,-72 200,-78 200,-84 200,-84 200,-96 200,-96 200,-102 194,-108 188,-108"/>
<text text-anchor="middle" x="100" y="-93" font-family="sans" font-size="10.00">overlap_activity_only_features_crispr</text>
<text text-anchor="middle" x="100" y="-82" font-family="sans" font-size="10.00">nafill: withNA</text>
</g>
<!-- 1&#45;&gt;0 -->
<g id="edge1" class="edge"><title>1&#45;&gt;0</title>
<path fill="none" stroke="grey" stroke-width="2" d="M126.664,-71.8761C140.784,-62.8083 158.311,-51.5523 173.561,-41.7592"/>
<polygon fill="grey" stroke="grey" points="175.71,-44.5385 182.233,-36.1898 171.927,-38.6485 175.71,-44.5385"/>
</g>
<!-- 2 -->
<g id="node3" class="node"><title>2</title>
<path fill="none" stroke="#d8b456" stroke-width="2" d="M250.25,-180C250.25,-180 167.75,-180 167.75,-180 161.75,-180 155.75,-174 155.75,-168 155.75,-168 155.75,-156 155.75,-156 155.75,-150 161.75,-144 167.75,-144 167.75,-144 250.25,-144 250.25,-144 256.25,-144 262.25,-150 262.25,-156 262.25,-156 262.25,-168 262.25,-168 262.25,-174 256.25,-180 250.25,-180"/>
<text text-anchor="middle" x="209" y="-159.5" font-family="sans" font-size="10.00">gen_final_features</text>
</g>
<!-- 2&#45;&gt;1 -->
<g id="edge3" class="edge"><title>2&#45;&gt;1</title>
<path fill="none" stroke="grey" stroke-width="2" d="M182.336,-143.876C168.216,-134.808 150.689,-123.552 135.439,-113.759"/>
<polygon fill="grey" stroke="grey" points="137.073,-110.648 126.767,-108.19 133.29,-116.538 137.073,-110.648"/>
</g>
<!-- 11 -->
<g id="node12" class="node"><title>11</title>
<path fill="none" stroke="#56b1d8" stroke-width="2" d="M406,-108C406,-108 230,-108 230,-108 224,-108 218,-102 218,-96 218,-96 218,-84 218,-84 218,-78 224,-72 230,-72 230,-72 406,-72 406,-72 412,-72 418,-78 418,-84 418,-84 418,-96 418,-96 418,-102 412,-108 406,-108"/>
<text text-anchor="middle" x="318" y="-93" font-family="sans" font-size="10.00">overlap_activity_only_features_crispr</text>
<text text-anchor="middle" x="318" y="-82" font-family="sans" font-size="10.00">nafill: NAfilled</text>
</g>
<!-- 2&#45;&gt;11 -->
<g id="edge16" class="edge"><title>2&#45;&gt;11</title>
<path fill="none" stroke="grey" stroke-width="2" d="M235.664,-143.876C249.784,-134.808 267.311,-123.552 282.561,-113.759"/>
<polygon fill="grey" stroke="grey" points="284.71,-116.538 291.233,-108.19 280.927,-110.648 284.71,-116.538"/>
</g>
<!-- 3 -->
<g id="node4" class="node"><title>3</title>
<path fill="none" stroke="#56d8c1" stroke-width="2" d="M259.25,-252C259.25,-252 158.75,-252 158.75,-252 152.75,-252 146.75,-246 146.75,-240 146.75,-240 146.75,-228 146.75,-228 146.75,-222 152.75,-216 158.75,-216 158.75,-216 259.25,-216 259.25,-216 265.25,-216 271.25,-222 271.25,-228 271.25,-228 271.25,-240 271.25,-240 271.25,-246 265.25,-252 259.25,-252"/>
<text text-anchor="middle" x="209" y="-231.5" font-family="sans" font-size="10.00">activity_only_features</text>
</g>
<!-- 3&#45;&gt;2 -->
<g id="edge4" class="edge"><title>3&#45;&gt;2</title>
<path fill="none" stroke="grey" stroke-width="2" d="M209,-215.697C209,-207.983 209,-198.712 209,-190.112"/>
<polygon fill="grey" stroke="grey" points="212.5,-190.104 209,-180.104 205.5,-190.104 212.5,-190.104"/>
</g>
<!-- 4 -->
<g id="node5" class="node"><title>4</title>
<path fill="none" stroke="#d85656" stroke-width="2" d="M221.25,-396C221.25,-396 116.75,-396 116.75,-396 110.75,-396 104.75,-390 104.75,-384 104.75,-384 104.75,-372 104.75,-372 104.75,-366 110.75,-360 116.75,-360 116.75,-360 221.25,-360 221.25,-360 227.25,-360 233.25,-366 233.25,-372 233.25,-372 233.25,-384 233.25,-384 233.25,-390 227.25,-396 221.25,-396"/>
<text text-anchor="middle" x="169" y="-375.5" font-family="sans" font-size="10.00">abc_create_predictions</text>
</g>
<!-- 4&#45;&gt;3 -->
<g id="edge5" class="edge"><title>4&#45;&gt;3</title>
<path fill="none" stroke="grey" stroke-width="2" d="M171.806,-359.723C174.948,-341.631 180.588,-312.499 188,-288 190.637,-279.285 194.091,-269.988 197.434,-261.654"/>
<polygon fill="grey" stroke="grey" points="200.671,-262.985 201.251,-252.406 194.201,-260.314 200.671,-262.985"/>
</g>
<!-- 10 -->
<g id="node11" class="node"><title>10</title>
<path fill="none" stroke="#bed856" stroke-width="2" d="M291,-324C291,-324 209,-324 209,-324 203,-324 197,-318 197,-312 197,-312 197,-300 197,-300 197,-294 203,-288 209,-288 209,-288 291,-288 291,-288 297,-288 303,-294 303,-300 303,-300 303,-312 303,-312 303,-318 297,-324 291,-324"/>
<text text-anchor="middle" x="250" y="-303.5" font-family="sans" font-size="10.00">gen_new_features</text>
</g>
<!-- 4&#45;&gt;10 -->
<g id="edge14" class="edge"><title>4&#45;&gt;10</title>
<path fill="none" stroke="grey" stroke-width="2" d="M189.022,-359.697C199.126,-350.965 211.536,-340.24 222.518,-330.75"/>
<polygon fill="grey" stroke="grey" points="224.93,-333.291 230.208,-324.104 220.353,-327.995 224.93,-333.291"/>
</g>
<!-- 5 -->
<g id="node6" class="node"><title>5</title>
<path fill="none" stroke="#d87556" stroke-width="2" d="M276.25,-468C276.25,-468 153.75,-468 153.75,-468 147.75,-468 141.75,-462 141.75,-456 141.75,-456 141.75,-444 141.75,-444 141.75,-438 147.75,-432 153.75,-432 153.75,-432 276.25,-432 276.25,-432 282.25,-432 288.25,-438 288.25,-444 288.25,-444 288.25,-456 288.25,-456 288.25,-462 282.25,-468 276.25,-468"/>
<text text-anchor="middle" x="215" y="-447.5" font-family="sans" font-size="10.00">abc_create_neighborhoods</text>
</g>
<!-- 5&#45;&gt;4 -->
<g id="edge7" class="edge"><title>5&#45;&gt;4</title>
<path fill="none" stroke="grey" stroke-width="2" d="M203.629,-431.697C198.282,-423.559 191.796,-413.689 185.889,-404.701"/>
<polygon fill="grey" stroke="grey" points="188.657,-402.539 180.24,-396.104 182.807,-406.384 188.657,-402.539"/>
</g>
<!-- 5&#45;&gt;10 -->
<g id="edge15" class="edge"><title>5&#45;&gt;10</title>
<path fill="none" stroke="grey" stroke-width="2" d="M226.031,-431.552C231.802,-421.538 238.399,-408.503 242,-396 247.823,-375.782 249.721,-352.007 250.219,-334.119"/>
<polygon fill="grey" stroke="grey" points="253.719,-334.134 250.37,-324.082 246.72,-334.028 253.719,-334.134"/>
</g>
<!-- 6 -->
<g id="node7" class="node"><title>6</title>
<path fill="none" stroke="#56d882" stroke-width="2" d="M229.25,-540C229.25,-540 92.75,-540 92.75,-540 86.75,-540 80.75,-534 80.75,-528 80.75,-528 80.75,-516 80.75,-516 80.75,-510 86.75,-504 92.75,-504 92.75,-504 229.25,-504 229.25,-504 235.25,-504 241.25,-510 241.25,-516 241.25,-516 241.25,-528 241.25,-528 241.25,-534 235.25,-540 229.25,-540"/>
<text text-anchor="middle" x="161" y="-519.5" font-family="sans" font-size="10.00">abc_make_candidate_regions</text>
</g>
<!-- 6&#45;&gt;5 -->
<g id="edge8" class="edge"><title>6&#45;&gt;5</title>
<path fill="none" stroke="grey" stroke-width="2" d="M174.348,-503.697C180.757,-495.389 188.558,-485.277 195.606,-476.141"/>
<polygon fill="grey" stroke="grey" points="198.468,-478.16 201.805,-468.104 192.926,-473.884 198.468,-478.16"/>
</g>
<!-- 7 -->
<g id="node8" class="node"><title>7</title>
<path fill="none" stroke="#56d0d8" stroke-width="2" d="M192,-612C192,-612 90,-612 90,-612 84,-612 78,-606 78,-600 78,-600 78,-588 78,-588 78,-582 84,-576 90,-576 90,-576 192,-576 192,-576 198,-576 204,-582 204,-588 204,-588 204,-600 204,-600 204,-606 198,-612 192,-612"/>
<text text-anchor="middle" x="141" y="-591.5" font-family="sans" font-size="10.00">abc_sort_narrowpeaks</text>
</g>
<!-- 7&#45;&gt;6 -->
<g id="edge10" class="edge"><title>7&#45;&gt;6</title>
<path fill="none" stroke="grey" stroke-width="2" d="M145.944,-575.697C148.172,-567.898 150.855,-558.509 153.335,-549.829"/>
<polygon fill="grey" stroke="grey" points="156.731,-550.681 156.113,-540.104 150,-548.758 156.731,-550.681"/>
</g>
<!-- 8 -->
<g id="node9" class="node"><title>8</title>
<path fill="none" stroke="#56d863" stroke-width="2" d="M125,-684C125,-684 27,-684 27,-684 21,-684 15,-678 15,-672 15,-672 15,-660 15,-660 15,-654 21,-648 27,-648 27,-648 125,-648 125,-648 131,-648 137,-654 137,-660 137,-660 137,-672 137,-672 137,-678 131,-684 125,-684"/>
<text text-anchor="middle" x="76" y="-669" font-family="sans" font-size="10.00">abc_call_macs_peaks</text>
<text text-anchor="middle" x="76" y="-658" font-family="sans" font-size="10.00">biosample: K562*</text>
</g>
<!-- 8&#45;&gt;7 -->
<g id="edge12" class="edge"><title>8&#45;&gt;7</title>
<path fill="none" stroke="grey" stroke-width="2" d="M92.0674,-647.697C99.9388,-639.22 109.555,-628.864 118.173,-619.583"/>
<polygon fill="grey" stroke="grey" points="120.878,-621.814 125.117,-612.104 115.748,-617.051 120.878,-621.814"/>
</g>
<!-- 9 -->
<g id="node10" class="node"><title>9</title>
<path fill="none" stroke="#68d856" stroke-width="2" d="M335,-684C335,-684 167,-684 167,-684 161,-684 155,-678 155,-672 155,-672 155,-660 155,-660 155,-654 161,-648 167,-648 167,-648 335,-648 335,-648 341,-648 347,-654 347,-660 347,-660 347,-672 347,-672 347,-678 341,-684 335,-684"/>
<text text-anchor="middle" x="251" y="-663.5" font-family="sans" font-size="10.00">abc_generate_chrom_sizes_bed_file</text>
</g>
<!-- 9&#45;&gt;5 -->
<g id="edge9" class="edge"><title>9&#45;&gt;5</title>
<path fill="none" stroke="grey" stroke-width="2" d="M254.059,-647.599C258.654,-617.54 265.274,-554.281 250,-504 247.05,-494.29 241.698,-484.712 236.052,-476.426"/>
<polygon fill="grey" stroke="grey" points="238.861,-474.338 230.15,-468.307 233.199,-478.454 238.861,-474.338"/>
</g>
<!-- 9&#45;&gt;6 -->
<g id="edge11" class="edge"><title>9&#45;&gt;6</title>
<path fill="none" stroke="grey" stroke-width="2" d="M245.853,-647.991C239.746,-629.352 228.416,-599.039 213,-576 206.125,-565.725 197.103,-555.71 188.507,-547.203"/>
<polygon fill="grey" stroke="grey" points="190.774,-544.528 181.128,-540.146 185.936,-549.587 190.774,-544.528"/>
</g>
<!-- 9&#45;&gt;7 -->
<g id="edge13" class="edge"><title>9&#45;&gt;7</title>
<path fill="none" stroke="grey" stroke-width="2" d="M224.091,-647.876C209.842,-638.808 192.154,-627.552 176.764,-617.759"/>
<polygon fill="grey" stroke="grey" points="178.328,-614.606 168.012,-612.19 174.57,-620.511 178.328,-614.606"/>
</g>
<!-- 10&#45;&gt;3 -->
<g id="edge6" class="edge"><title>10&#45;&gt;3</title>
<path fill="none" stroke="grey" stroke-width="2" d="M239.865,-287.697C235.148,-279.644 229.438,-269.894 224.218,-260.982"/>
<polygon fill="grey" stroke="grey" points="227.092,-258.964 219.018,-252.104 221.052,-262.502 227.092,-258.964"/>
</g>
<!-- 11&#45;&gt;0 -->
<g id="edge2" class="edge"><title>11&#45;&gt;0</title>
<path fill="none" stroke="grey" stroke-width="2" d="M291.336,-71.8761C277.216,-62.8083 259.689,-51.5523 244.439,-41.7592"/>
<polygon fill="grey" stroke="grey" points="246.073,-38.6485 235.767,-36.1898 242.29,-44.5385 246.073,-38.6485"/>
</g>
</g>
</svg>
